<svg width="36" height="36" viewBox="0 0 36 36" fill="none" xmlns="http://www.w3.org/2000/svg">
<g clip-path="url(#clip0_24531_4302)">
<path d="M23.67 33V21.39H27.5583L28.14 16.8767H23.67V13.9967C23.67 12.69 24.0333 11.7983 25.9067 11.7983H28.2967V7.76167C27.1397 7.63891 25.9768 7.57937 24.8133 7.58333C21.3683 7.58333 19.01 9.68667 19.01 13.55V16.8767H15.1133V21.39H19.01V33H4.66667C4.22464 33 3.80072 32.8244 3.48816 32.5118C3.17559 32.1993 3 31.7754 3 31.3333V4.66667C3 4.22464 3.17559 3.80072 3.48816 3.48816C3.80072 3.17559 4.22464 3 4.66667 3H31.3333C31.7754 3 32.1993 3.17559 32.5118 3.48816C32.8244 3.80072 33 4.22464 33 4.66667V31.3333C33 31.7754 32.8244 32.1993 32.5118 32.5118C32.1993 32.8244 31.7754 33 31.3333 33H23.67Z" fill="#A1A6B4"/>
</g>
<defs>
<clipPath id="clip0_24531_4302">
<rect width="36" height="36" fill="white"/>
</clipPath>
</defs>
</svg>
