<svg width="320" height="12" viewBox="0 0 320 12" fill="none" xmlns="http://www.w3.org/2000/svg">
<path opacity="0.6" d="M0 11C8.004 11 8.00398 1 15.9887 1C23.9927 1 23.9927 11 31.9775 11C39.9814 11 39.9814 1 47.9847 1C55.9887 1 55.9887 11 63.9926 11C71.9964 11 71.9964 1 80.0001 1C88.0039 1 88.0039 11 96.0076 11C104.011 11 104.011 1 111.996 1C120 1 120 11 127.985 11C135.989 11 135.989 1 143.974 1C151.978 1 151.978 11 159.981 11C167.985 11 167.985 1 175.989 1C183.992 1 183.992 11 191.996 11C200 11 200 1 208.004 1C216.008 1 216.008 11 224.011 11C232.015 11 232.015 1 240.019 1C248.023 1 248.023 11 256.027 11C264.03 11 264.03 1 272.015 1C280.019 1 280.019 11 288.004 11C296.008 11 296.008 1 303.993 1C311.997 1 311.997 11 320 11" stroke="#F5F6F7" stroke-miterlimit="10" stroke-linecap="square"/>
</svg>
