<svg width="36" height="36" viewBox="0 0 36 36" fill="none" xmlns="http://www.w3.org/2000/svg">
<g clip-path="url(#clip0_24531_4299)">
<path d="M18 3C22.0755 3 22.584 3.015 24.183 3.09C25.7805 3.165 26.868 3.4155 27.825 3.7875C28.815 4.1685 29.649 4.6845 30.483 5.517C31.2457 6.26684 31.8359 7.17388 32.2125 8.175C32.583 9.1305 32.835 10.2195 32.91 11.817C32.9805 13.416 33 13.9245 33 18C33 22.0755 32.985 22.584 32.91 24.183C32.835 25.7805 32.583 26.868 32.2125 27.825C31.837 28.8267 31.2467 29.7339 30.483 30.483C29.7329 31.2455 28.826 31.8356 27.825 32.2125C26.8695 32.583 25.7805 32.835 24.183 32.91C22.584 32.9805 22.0755 33 18 33C13.9245 33 13.416 32.985 11.817 32.91C10.2195 32.835 9.132 32.583 8.175 32.2125C7.17349 31.8367 6.26629 31.2464 5.517 30.483C4.75411 29.7333 4.1639 28.8262 3.7875 27.825C3.4155 26.8695 3.165 25.7805 3.09 24.183C3.0195 22.584 3 22.0755 3 18C3 13.9245 3.015 13.416 3.09 11.817C3.165 10.218 3.4155 9.132 3.7875 8.175C4.16285 7.17327 4.75321 6.26598 5.517 5.517C6.26651 4.75385 7.17364 4.16359 8.175 3.7875C9.132 3.4155 10.218 3.165 11.817 3.09C13.416 3.0195 13.9245 3 18 3ZM18 10.5C16.0109 10.5 14.1032 11.2902 12.6967 12.6967C11.2902 14.1032 10.5 16.0109 10.5 18C10.5 19.9891 11.2902 21.8968 12.6967 23.3033C14.1032 24.7098 16.0109 25.5 18 25.5C19.9891 25.5 21.8968 24.7098 23.3033 23.3033C24.7098 21.8968 25.5 19.9891 25.5 18C25.5 16.0109 24.7098 14.1032 23.3033 12.6967C21.8968 11.2902 19.9891 10.5 18 10.5ZM27.75 10.125C27.75 9.62772 27.5525 9.15081 27.2008 8.79917C26.8492 8.44754 26.3723 8.25 25.875 8.25C25.3777 8.25 24.9008 8.44754 24.5492 8.79917C24.1975 9.15081 24 9.62772 24 10.125C24 10.6223 24.1975 11.0992 24.5492 11.4508C24.9008 11.8025 25.3777 12 25.875 12C26.3723 12 26.8492 11.8025 27.2008 11.4508C27.5525 11.0992 27.75 10.6223 27.75 10.125ZM18 13.5C19.1935 13.5 20.3381 13.9741 21.182 14.818C22.0259 15.6619 22.5 16.8065 22.5 18C22.5 19.1935 22.0259 20.3381 21.182 21.182C20.3381 22.0259 19.1935 22.5 18 22.5C16.8065 22.5 15.6619 22.0259 14.818 21.182C13.9741 20.3381 13.5 19.1935 13.5 18C13.5 16.8065 13.9741 15.6619 14.818 14.818C15.6619 13.9741 16.8065 13.5 18 13.5Z" fill="#A1A6B4"/>
</g>
<defs>
<clipPath id="clip0_24531_4299">
<rect width="36" height="36" fill="white"/>
</clipPath>
</defs>
</svg>
