<svg width="36" height="36" viewBox="0 0 36 36" fill="none" xmlns="http://www.w3.org/2000/svg">
<g clip-path="url(#clip0_24531_4305)">
<path d="M33.2434 8.48389C32.0983 8.99043 30.8839 9.3231 29.6404 9.47089C30.9511 8.68704 31.932 7.45341 32.4004 5.99989C31.1704 6.73189 29.8219 7.24489 28.4164 7.52239C27.4724 6.51226 26.221 5.84233 24.8569 5.61677C23.4928 5.3912 22.0924 5.62263 20.8733 6.27507C19.6543 6.92751 18.685 7.96442 18.1161 9.22458C17.5472 10.4847 17.4106 11.8976 17.7274 13.2434C15.2331 13.1184 12.7929 12.4702 10.5654 11.3409C8.33781 10.2116 6.37264 8.62646 4.79745 6.68839C4.23988 7.64607 3.94688 8.73473 3.94845 9.84289C3.94845 12.0179 5.05545 13.9394 6.73845 15.0644C5.74246 15.033 4.76839 14.7641 3.89745 14.2799V14.3579C3.89775 15.8064 4.399 17.2103 5.31622 18.3315C6.23343 19.4526 7.51017 20.2221 8.92994 20.5094C8.00537 20.7599 7.03591 20.7969 6.09495 20.6174C6.49525 21.8642 7.27546 22.9547 8.32633 23.7361C9.37721 24.5174 10.6461 24.9506 11.9554 24.9749C10.6542 25.9969 9.16421 26.7524 7.57077 27.1981C5.97732 27.6439 4.31164 27.7713 2.66895 27.5729C5.53649 29.417 8.87459 30.3961 12.2839 30.3929C23.8234 30.3929 30.1339 20.8334 30.1339 12.5429C30.1339 12.2729 30.1264 11.9999 30.1144 11.7329C31.3427 10.8451 32.4028 9.74542 33.2449 8.48539L33.2434 8.48389Z" fill="#A1A6B4"/>
</g>
<defs>
<clipPath id="clip0_24531_4305">
<rect width="36" height="36" fill="white"/>
</clipPath>
</defs>
</svg>
