<svg width="256" height="12" viewBox="0 0 256 12" fill="none" xmlns="http://www.w3.org/2000/svg">
<path d="M1 1C8.941 1 8.941 11 16.882 11C24.823 11 24.823 1 32.764 1C40.705 1 40.705 11 48.6274 11C56.5686 11 56.5686 1 64.4908 1C72.432 1 72.432 11 80.3541 11C88.2953 11 88.2953 1 96.2359 1C104.177 1 104.177 11 112.118 11C120.059 11 120.059 1 128 1C135.941 1 135.941 11 143.882 11C151.823 11 151.823 1 159.764 1C167.705 1 167.705 11 175.646 11C183.587 11 183.587 1 191.528 1C199.469 1 199.469 11 207.392 11C215.333 11 215.333 1 223.255 1C231.196 1 231.196 11 239.118 11C247.059 11 247.059 1 255 1" stroke="#A1A6B4" stroke-miterlimit="10" stroke-linecap="square"/>
</svg>
