<svg width="397" height="12" viewBox="0 0 397 12" fill="none" xmlns="http://www.w3.org/2000/svg">
<path d="M1 1C9.23238 1 9.23238 11 17.4648 11C25.6972 11 25.6972 1 33.9295 1C42.1619 1 42.1619 11 50.375 11C58.6076 11 58.6076 1 66.8205 1C75.0531 1 75.0531 11 83.2659 11C91.4985 11 91.4985 1 99.7304 1C107.963 1 107.963 11 116.196 11C124.428 11 124.428 1 132.66 1C140.893 1 140.893 11 149.125 11C157.357 11 157.357 1 165.59 1C173.822 1 173.822 11 182.055 11C190.287 11 190.287 1 198.519 1C206.752 1 206.752 11 214.965 11C223.197 11 223.197 1 231.41 1C239.643 1 239.643 11 247.856 11C256.088 11 256.088 1 264.32 1C272.553 1 272.553 11 280.785 11C289.017 11 289.017 1 297.25 1C305.482 1 305.482 11 313.715 11C321.947 11 321.947 1 330.179 1C338.412 1 338.412 11 346.644 11C354.877 11 354.877 1 363.109 1C371.341 1 371.341 11 379.554 11C387.787 11 387.787 1 396 1" stroke="#A1A6B4" stroke-miterlimit="10" stroke-linecap="square"/>
</svg>
