<svg width="34" height="34" viewBox="0 0 34 34" fill="none" xmlns="http://www.w3.org/2000/svg">
<path d="M23.3 33.6667V20.7667H27.6204L28.2667 15.7519H23.3V12.5519C23.3 11.1 23.7037 10.1093 25.7852 10.1093H28.4408V5.62408C27.1552 5.48769 25.8632 5.42154 24.5704 5.42594C20.7426 5.42594 18.1223 7.76297 18.1223 12.0556V15.7519H13.7926V20.7667H18.1223V33.6667H2.18523C1.69408 33.6667 1.22306 33.4716 0.875769 33.1243C0.528479 32.777 0.333374 32.306 0.333374 31.8148V2.1852C0.333374 1.69405 0.528479 1.22303 0.875769 0.875738C1.22306 0.528449 1.69408 0.333344 2.18523 0.333344H31.8149C32.306 0.333344 32.777 0.528449 33.1243 0.875738C33.4716 1.22303 33.6667 1.69405 33.6667 2.1852V31.8148C33.6667 32.306 33.4716 32.777 33.1243 33.1243C32.777 33.4716 32.306 33.6667 31.8149 33.6667H23.3Z" fill="#A1A6B4"/>
</svg>
