<svg width="451" height="50" viewBox="0 0 451 50" fill="none" xmlns="http://www.w3.org/2000/svg">
<path d="M0.5 -2.86102e-06H16.34C28.42 -2.86102e-06 34.46 4.7 34.46 14.1C34.46 23.5 28.42 28.2 16.34 28.2H9.5V42H0.5V-2.86102e-06ZM16.76 20.28C22.44 20.28 25.28 18.22 25.28 14.1C25.28 9.98 22.44 7.92 16.76 7.92H9.5V20.28H16.76ZM64.3034 34.56C64.3034 35.84 64.9834 36.48 66.3434 36.48C66.9034 36.48 67.4234 36.4 67.9034 36.24V41.7C66.3834 42.26 64.8434 42.54 63.2834 42.54C60.2434 42.54 58.1234 41.46 56.9234 39.3C53.9234 41.66 50.4634 42.84 46.5434 42.84C43.7034 42.84 41.3034 42.06 39.3434 40.5C37.4234 38.9 36.4634 36.74 36.4634 34.02C36.4634 31.74 37.1434 29.84 38.5034 28.32C39.8634 26.8 41.4434 25.78 43.2434 25.26C45.0434 24.7 47.0034 24.42 49.1234 24.42C51.4834 24.42 53.7634 24.68 55.9634 25.2V24.18C55.9634 22.7 55.3834 21.52 54.2234 20.64C53.0634 19.76 51.3834 19.32 49.1834 19.32C45.9834 19.32 42.5834 20.04 38.9834 21.48V14.28C42.8234 13 46.5434 12.36 50.1434 12.36C59.5834 12.36 64.3034 16.7 64.3034 25.38V34.56ZM51.0434 29.4C49.3234 29.4 47.8834 29.72 46.7234 30.36C45.5634 31 44.9834 32 44.9834 33.36C44.9834 34.4 45.4034 35.26 46.2434 35.94C47.1234 36.58 48.2034 36.9 49.4834 36.9C52.0034 36.9 54.1634 36.12 55.9634 34.56V30.06C54.1234 29.62 52.4834 29.4 51.0434 29.4ZM77.772 49.62H70.092V35.64H74.112C77.112 30.44 78.512 22.96 78.312 13.2H102.012V35.64H106.332V49.62H98.652V42H77.772V49.62ZM85.992 19.56C85.752 26.12 84.672 31.48 82.752 35.64H93.732V19.56H85.992ZM118.773 42H111.513V13.2H119.853V29.4L132.693 13.2H139.893V42H131.613V25.8L118.773 42ZM149.962 38.82C146.882 36.14 145.342 32.4 145.342 27.6C145.342 22.8 146.882 19.06 149.962 16.38C153.042 13.7 156.802 12.36 161.242 12.36C165.722 12.36 169.482 13.7 172.522 16.38C175.602 19.06 177.142 22.8 177.142 27.6C177.142 32.4 175.602 36.14 172.522 38.82C169.482 41.5 165.722 42.84 161.242 42.84C156.802 42.84 153.042 41.5 149.962 38.82ZM166.702 33.24C168.022 31.76 168.682 29.88 168.682 27.6C168.682 25.32 168.022 23.46 166.702 22.02C165.382 20.54 163.562 19.8 161.242 19.8C158.922 19.8 157.102 20.54 155.782 22.02C154.502 23.46 153.862 25.32 153.862 27.6C153.862 29.88 154.502 31.76 155.782 33.24C157.102 34.68 158.922 35.4 161.242 35.4C163.562 35.4 165.382 34.68 166.702 33.24ZM250.548 -2.86102e-06H255.888L236.388 42H230.628L225.348 9.12L209.688 42H203.688L197.148 -2.86102e-06H202.248L207.708 35.64L224.688 -2.86102e-06H228.768L234.408 34.98L250.548 -2.86102e-06ZM254.603 24.84H276.023L275.303 29.4H253.883L254.603 24.84ZM335.86 -2.86102e-06H341.2L321.7 42H315.94L310.66 9.12L295 42H289L282.46 -2.86102e-06H287.56L293.02 35.64L310 -2.86102e-06H314.08L319.72 34.98L335.86 -2.86102e-06ZM362.069 37.08C358.669 40.84 354.569 42.72 349.769 42.72C345.609 42.72 342.369 41.26 340.049 38.34C337.729 35.38 336.909 31.7 337.589 27.3C338.229 23.06 340.129 19.54 343.289 16.74C346.449 13.9 350.049 12.48 354.089 12.48C358.769 12.48 362.429 14.38 365.069 18.18L365.849 13.2H370.169L365.609 42H361.289L362.069 37.08ZM342.269 27.6C341.789 30.76 342.349 33.34 343.949 35.34C345.549 37.3 347.749 38.28 350.549 38.28C353.029 38.28 355.329 37.58 357.449 36.18C359.609 34.78 361.289 33.08 362.489 31.08L363.629 23.88C363.149 21.92 362.089 20.28 360.449 18.96C358.809 17.6 356.789 16.92 354.389 16.92C351.429 16.92 348.789 17.88 346.469 19.8C344.189 21.72 342.789 24.32 342.269 27.6ZM415.838 13.2H420.998L406.718 42H401.618L397.418 19.86L386.018 42H380.798L375.518 13.2H380.378L384.338 36L396.098 13.2H400.418L404.798 35.94L415.838 13.2ZM421.613 27.42C422.333 22.74 424.313 19.08 427.553 16.44C430.833 13.8 434.373 12.48 438.173 12.48C440.813 12.48 443.073 13 444.953 14.04C446.833 15.08 448.153 16.44 448.913 18.12C449.673 19.76 450.093 21.62 450.173 23.7C450.293 25.78 449.913 27.84 449.033 29.88H426.113C425.953 32.72 426.893 34.84 428.933 36.24C431.013 37.6 433.513 38.28 436.433 38.28C440.193 38.28 443.613 37.46 446.693 35.82L445.913 40.68C442.993 42.04 439.553 42.72 435.593 42.72C433.673 42.72 431.813 42.4 430.013 41.76C428.213 41.12 426.593 40.2 425.153 39C423.753 37.8 422.713 36.2 422.033 34.2C421.353 32.16 421.213 29.9 421.613 27.42ZM445.493 25.68C445.813 24.84 445.893 23.92 445.733 22.92C445.573 21.92 445.293 20.98 444.893 20.1C444.493 19.18 443.713 18.42 442.553 17.82C441.393 17.22 439.953 16.92 438.233 16.92C435.553 16.92 433.113 17.72 430.913 19.32C428.753 20.88 427.373 23 426.773 25.68H445.493Z" fill="#121723"/>
</svg>
