<svg width="30" height="30" viewBox="0 0 30 30" fill="none" xmlns="http://www.w3.org/2000/svg">
<path d="M12.3507 9.21936C12.3507 10.6392 13.5854 11.7903 15.1085 11.7903C16.632 11.7903 17.8667 10.6392 17.8667 9.21936C17.8667 7.79952 16.632 6.64846 15.1085 6.64846C13.5854 6.64846 12.3507 7.79952 12.3507 9.21936Z" fill="#D2D5DD"/>
<path fill-rule="evenodd" clip-rule="evenodd" d="M9 0C4.02944 0 0 4.02944 0 9V21C0 25.9706 4.02944 30 9 30H21C25.9706 30 30 25.9706 30 21V9C30 4.02944 25.9706 0 21 0H9ZM8.43654 9.21926C8.43654 5.7845 11.4236 3 15.1085 3C18.7938 3 21.7809 5.7845 21.7809 9.21926C21.7809 12.6541 18.7938 15.4388 15.1085 15.4388C11.4236 15.4388 8.43654 12.6541 8.43654 9.21926ZM21.8209 18.6379C21.736 18.7011 20.1353 19.8802 17.4641 20.3874L21.4961 24.1122C22.2052 24.7721 22.2061 25.8428 21.4982 26.5037C20.7903 27.1646 19.6419 27.1656 18.9325 26.5056L15.018 22.9525L11.4627 26.4827C11.1069 26.8269 10.6321 27 10.1566 27C9.70346 27 9.24968 26.8428 8.89754 26.5263C8.17612 25.8781 8.15537 24.8075 8.85093 24.1352L12.6779 20.4071C9.93201 19.9118 8.26513 18.702 8.17943 18.6379C7.39756 18.0536 7.27216 16.9893 7.89886 16.2606C8.52585 15.5321 9.66738 15.415 10.4492 15.9992C10.4658 16.0117 12.209 17.2324 15.018 17.2342C17.827 17.2324 19.5342 16.0117 19.5507 15.9992C20.3326 15.415 21.4744 15.5321 22.1011 16.2606C22.7278 16.9893 22.6024 18.0536 21.8209 18.6379Z" fill="#D2D5DD"/>
</svg>
