<svg width="30" height="30" viewBox="0 0 30 30" fill="none" xmlns="http://www.w3.org/2000/svg">
<path fill-rule="evenodd" clip-rule="evenodd" d="M0 9C0 4.02979 4.02979 0 9 0H21C25.9702 0 30 4.02979 30 9V21C30 25.9702 25.9702 30 21 30H9C4.02979 30 0 25.9702 0 21V9ZM23.0156 17.1709C23.5708 17.6667 24.1267 18.1633 24.6182 18.7192C24.8123 18.939 24.9998 19.1631 25.1653 19.4019C25.2524 19.5271 25.3337 19.656 25.407 19.79C25.5637 20.0771 25.5659 20.3789 25.459 20.6074C25.3586 20.8213 25.1631 20.9714 24.9089 20.9875L21.6313 20.9868C20.7854 21.0535 20.1116 20.7312 19.5439 20.1863C19.0906 19.7512 18.6702 19.2876 18.2336 18.8379C18.0549 18.6533 17.8674 18.4797 17.6433 18.3428C17.3943 18.1897 17.1628 18.1487 16.9629 18.2183C16.8047 18.2732 16.6655 18.3984 16.5527 18.5933C16.292 19.0408 16.2319 19.5366 16.207 20.0347C16.1719 20.7627 15.9382 20.9531 15.1633 20.9875C13.5066 21.0608 11.9348 20.8235 10.4736 20.0361C9.18457 19.3418 8.18701 18.3625 7.31763 17.2529C5.625 15.0901 4.32861 12.7163 3.16406 10.2737C2.90186 9.72363 3.09375 9.42993 3.73755 9.41821C4.80688 9.39917 5.87695 9.40137 6.94629 9.41748C7.38135 9.42407 7.66919 9.65845 7.83691 10.0459C8.41479 11.3862 9.12305 12.6614 10.0115 13.8435L10.1755 14.0581C10.3638 14.2976 10.5681 14.5239 10.8333 14.6953C11.2126 14.9407 11.502 14.8594 11.6814 14.4602C11.7957 14.2061 11.8455 13.9343 11.8704 13.6626C11.9553 12.731 11.9656 11.7993 11.8184 10.8713C11.7268 10.2905 11.3796 9.91553 10.7659 9.80566C10.4524 9.74927 10.4985 9.64014 10.6509 9.47168C10.9146 9.18091 11.1621 9.00073 11.6565 9.00073L15.3596 9C15.9426 9.10767 16.0737 9.35449 16.1528 9.90894L16.1565 13.7864C16.1492 14.001 16.2708 14.6367 16.6787 14.7766C17.0061 14.8784 17.2222 14.6309 17.4177 14.436C18.3054 13.5476 18.9382 12.4995 19.5051 11.4148C19.7549 10.9365 19.9709 10.4414 20.1804 9.94556C20.2537 9.77344 20.3452 9.64233 20.4683 9.55225C20.6067 9.45044 20.7847 9.40137 21.0176 9.4043L24.583 9.40869C24.6877 9.40869 24.7947 9.40942 24.8987 9.42627C25.2151 9.47754 25.4106 9.56909 25.4978 9.7251C25.5754 9.86499 25.5659 10.0576 25.478 10.3191C25.1968 11.1533 24.6599 11.8542 24.1252 12.5515L24.0615 12.635C23.4653 13.4114 22.8303 14.1599 22.2407 14.9399C21.6987 15.6519 21.7412 16.0107 22.4143 16.6296C22.6128 16.812 22.8142 16.9915 23.0156 17.1709Z" fill="#D2D5DD"/>
</svg>
