<svg width="36" height="36" viewBox="0 0 36 36" fill="none" xmlns="http://www.w3.org/2000/svg">
<g clip-path="url(#clip0_24531_4790)">
<path d="M32.3145 9.747C33 12.42 33 18 33 18C33 18 33 23.58 32.3145 26.253C31.9335 27.7305 30.819 28.893 29.4075 29.286C26.844 30 18 30 18 30C18 30 9.1605 30 6.5925 29.286C5.175 28.887 4.062 27.726 3.6855 26.253C3 23.58 3 18 3 18C3 18 3 12.42 3.6855 9.747C4.0665 8.2695 5.181 7.107 6.5925 6.714C9.1605 6 18 6 18 6C18 6 26.844 6 29.4075 6.714C30.825 7.113 31.938 8.274 32.3145 9.747ZM15 23.25L24 18L15 12.75V23.25Z" fill="#D2D5DD"/>
</g>
<defs>
<clipPath id="clip0_24531_4790">
<rect width="36" height="36" fill="white"/>
</clipPath>
</defs>
</svg>
